<?xml version="1.0" standalone="no"?>
<!DOCTYPE svg PUBLIC "-//W3C//DTD SVG 20010904//EN"
 "http://www.w3.org/TR/2001/REC-SVG-20010904/DTD/svg10.dtd">
<svg version="1.0" xmlns="http://www.w3.org/2000/svg"
 width="512.000000pt" height="512.000000pt" viewBox="0 0 512.000000 512.000000"
 preserveAspectRatio="xMidYMid meet">
<metadata>
Created by potrace 1.14, written by Peter Selinger 2001-2017
</metadata>
<g transform="translate(0.000000,512.000000) scale(0.100000,-0.100000)"
fill="#000000" stroke="none">
<path d="M2380 4910 c-25 -5 -65 -11 -90 -14 -186 -27 -421 -121 -600 -239
-331 -219 -581 -579 -669 -962 -33 -146 -48 -422 -27 -505 4 -14 11 -46 16
-71 44 -223 237 -614 479 -972 25 -37 51 -75 56 -85 6 -9 25 -37 43 -62 l33
-45 -28 -7 c-15 -5 -39 -10 -53 -13 -14 -3 -50 -12 -80 -20 -30 -9 -59 -17
-65 -19 -66 -17 -151 -46 -250 -86 -419 -168 -649 -398 -661 -660 -3 -86 7
-143 38 -215 117 -266 469 -485 987 -615 124 -31 350 -72 466 -85 33 -4 74 -9
90 -11 194 -26 831 -25 996 0 13 3 51 7 84 11 32 4 66 8 75 10 8 1 38 6 65 9
154 22 407 82 555 132 407 140 670 335 766 569 25 61 28 83 29 170 0 87 -4
109 -28 170 -16 39 -48 97 -72 131 -148 207 -483 391 -907 497 l-127 32 45 65
c54 76 179 265 218 330 15 25 32 54 39 65 111 180 236 452 286 620 39 134 50
222 46 365 -2 74 -6 145 -9 156 -2 12 -7 37 -10 55 -62 394 -305 778 -643
1017 -187 132 -430 235 -633 267 -25 4 -54 10 -65 12 -35 8 -348 10 -395 3z
m315 -991 c271 -65 462 -309 457 -584 -6 -331 -264 -586 -592 -586 -331 0
-591 260 -591 593 -1 230 135 442 343 537 42 19 125 43 183 53 36 7 149 -1
200 -13z m-844 -2271 c66 -85 246 -306 259 -318 3 -3 32 -36 65 -75 33 -38 62
-72 65 -75 3 -3 39 -43 80 -90 41 -46 101 -110 133 -142 54 -55 59 -58 107
-58 48 0 53 3 103 53 76 77 195 209 320 357 40 47 78 91 85 98 7 8 72 88 144
178 120 151 133 164 157 159 14 -3 40 -8 56 -11 58 -10 230 -56 321 -85 299
-95 542 -249 619 -390 39 -72 41 -161 6 -232 -87 -177 -389 -351 -782 -453
-53 -13 -106 -27 -119 -29 -12 -2 -29 -6 -38 -9 -9 -3 -30 -8 -47 -11 -138
-24 -209 -35 -265 -40 -36 -4 -76 -8 -90 -11 -160 -26 -740 -25 -950 1 -19 2
-57 7 -84 10 -27 3 -59 7 -70 10 -12 2 -43 7 -71 10 -138 16 -446 98 -608 162
-254 100 -437 233 -500 364 -32 67 -32 152 1 215 97 188 424 366 862 468 138
32 143 33 157 35 6 0 44 -41 84 -91z"/>
</g>
</svg>
